<svg t="1686731341163" class="icon" viewBox="0 0 1024 1024" version="1.1" xmlns="http://www.w3.org/2000/svg" p-id="10687" width="32" height="32"><path d="M784 128H240c-88 0-160 72-160 160v448c0 88 72 160 160 160h544c88 0 160-72 160-160V288c0-88-72-160-160-160z m96 480H592c-52.8 0-96-43.2-96-96s43.2-96 96-96h288v192zM592 352c-88 0-160 72-160 160s72 160 160 160h288v64c0 52.8-43.2 96-96 96H240c-52.8 0-96-43.2-96-96V288c0-52.8 43.2-96 96-96h544c52.8 0 96 43.2 96 96v64H592z" fill="#e98f36" p-id="10688"></path><path d="M560 512a32 32 0 1 0 64 0 32 32 0 1 0-64 0z" fill="#e98f36" p-id="10689"></path></svg>